<svg xmlns="http://www.w3.org/2000/svg" xmlns:xlink="http://www.w3.org/1999/xlink" width="816" zoomAndPan="magnify" viewBox="0 0 612 611.999999" height="816" preserveAspectRatio="xMidYMid meet" version="1.0"><defs><clipPath id="475563c273"><path d="M 419 311 L 489 311 L 489 359 L 419 359 Z M 419 311 " clip-rule="nonzero"/></clipPath><clipPath id="902db99809"><path d="M 623.742188 307.824219 L 295.757812 623.542969 L -11.636719 304.199219 L 316.347656 -11.515625 Z M 623.742188 307.824219 " clip-rule="nonzero"/></clipPath><clipPath id="29415f458c"><path d="M 623.742188 307.824219 L 295.757812 623.542969 L -11.636719 304.199219 L 316.347656 -11.515625 Z M 623.742188 307.824219 " clip-rule="nonzero"/></clipPath><clipPath id="ec74a51af2"><path d="M 3 240 L 603 240 L 603 379 L 3 379 Z M 3 240 " clip-rule="nonzero"/></clipPath><clipPath id="b5f403f645"><path d="M 623.742188 307.824219 L 295.757812 623.542969 L -11.636719 304.199219 L 316.347656 -11.515625 Z M 623.742188 307.824219 " clip-rule="nonzero"/></clipPath><clipPath id="524becb528"><path d="M 623.742188 307.824219 L 295.757812 623.542969 L -11.636719 304.199219 L 316.347656 -11.515625 Z M 623.742188 307.824219 " clip-rule="nonzero"/></clipPath><clipPath id="4fa3030c38"><path d="M 419 311 L 489 311 L 489 359 L 419 359 Z M 419 311 " clip-rule="nonzero"/></clipPath><clipPath id="f2d1ba678b"><path d="M 623.742188 307.824219 L 295.757812 623.542969 L -11.636719 304.199219 L 316.347656 -11.515625 Z M 623.742188 307.824219 " clip-rule="nonzero"/></clipPath><clipPath id="e3a0a6bcaf"><path d="M 623.742188 307.824219 L 295.757812 623.542969 L -11.636719 304.199219 L 316.347656 -11.515625 Z M 623.742188 307.824219 " clip-rule="nonzero"/></clipPath></defs><g clip-path="url(#475563c273)"><g clip-path="url(#902db99809)"><g clip-path="url(#29415f458c)"><path fill="#efc1ed" d="M 421.152344 313.871094 C 421.5625 313.476562 422.027344 313.128906 422.542969 312.835938 C 425.855469 310.964844 430.054688 312.128906 431.925781 315.441406 L 432.40625 316.296875 C 443.683594 336.683594 460.125 346.128906 481.273438 344.378906 C 485.0625 344.066406 488.390625 346.882812 488.703125 350.671875 C 489.015625 354.460938 486.199219 357.789062 482.410156 358.101562 C 463.820312 359.640625 437.96875 354.796875 420.355469 322.964844 L 419.941406 322.21875 C 418.359375 319.425781 418.945312 316 421.152344 313.871094 Z M 421.152344 313.871094 " fill-opacity="1" fill-rule="nonzero"/></g></g></g><g clip-path="url(#ec74a51af2)"><g clip-path="url(#b5f403f645)"><g clip-path="url(#524becb528)"><path fill="#efc1ed" d="M 580.75 330.140625 C 564.796875 345.5 526.824219 362.367188 485.023438 364.890625 C 430.027344 368.207031 408.449219 324.101562 403.714844 317.609375 C 400.449219 313.132812 334.847656 307.570312 254.621094 310.597656 C 245.214844 310.949219 235.820312 311.585938 226.480469 312.496094 C 181.734375 316.839844 16.511719 333.460938 17.15625 299.585938 C 17.210938 296.765625 18.398438 294.335938 20.558594 292.257812 C 44.328125 269.375 185.785156 288.914062 226.625 294.457031 C 235.734375 295.691406 244.898438 296.679688 254.09375 297.378906 C 333.738281 303.464844 399.355469 301.78125 403.800781 297.5 C 403.839844 297.464844 403.871094 297.429688 403.898438 297.390625 C 405.972656 294.769531 411.238281 285.925781 420.628906 276.882812 C 433.808594 264.195312 455.113281 251.117188 487.128906 254.277344 C 541.957031 259.6875 589.257812 287.535156 588.9375 304.40625 L 588.703125 316.550781 C 588.628906 320.597656 585.785156 325.296875 580.75 330.140625 M 590.300781 340.066406 L 580.75 330.144531 L 590.300781 340.066406 C 598.230469 332.429688 602.324219 324.605469 602.472656 316.8125 L 602.707031 304.667969 C 603.050781 286.535156 582.445312 271.914062 565.097656 262.839844 C 542.742188 251.148438 515.535156 243.242188 488.484375 240.570312 C 458.820312 237.644531 432.054688 246.769531 411.082031 266.960938 C 403.554688 274.207031 398.390625 281.300781 395.320312 285.691406 C 389.933594 286.46875 376.75 287.570312 351.3125 287.578125 C 322.585938 287.589844 288.433594 286.191406 255.144531 283.648438 C 246.421875 282.984375 237.449219 282.027344 228.480469 280.808594 L 226.921875 280.597656 C 205.128906 277.640625 159.777344 271.480469 116.417969 268.851562 C 40.203125 264.234375 20.050781 273.632812 11.007812 282.335938 C 6.144531 287.015625 3.511719 292.890625 3.386719 299.324219 C 3.296875 304.199219 4.636719 311.355469 11.550781 317.753906 C 19.601562 325.199219 33.515625 329.792969 55.328125 332.203125 C 71.144531 333.949219 91.480469 334.542969 115.777344 333.957031 C 158.660156 332.929688 203.859375 328.53125 225.578125 326.417969 L 227.8125 326.203125 C 236.898438 325.320312 246.089844 324.699219 255.140625 324.359375 C 328.996094 321.574219 381.136719 326.058594 394.5625 328.832031 C 398.804688 335.554688 407.050781 348.121094 420.921875 359.03125 C 439.359375 373.527344 461.203125 380.125 485.851562 378.636719 C 533.039062 375.789062 573.074219 356.648438 590.300781 340.066406 Z M 590.300781 340.066406 " fill-opacity="1" fill-rule="nonzero"/></g></g></g><g clip-path="url(#4fa3030c38)"><g clip-path="url(#f2d1ba678b)"><g clip-path="url(#e3a0a6bcaf)"><path fill="#efc1ed" d="M 421.152344 313.871094 C 421.5625 313.476562 422.027344 313.128906 422.542969 312.835938 C 425.855469 310.964844 430.054688 312.128906 431.925781 315.441406 L 432.40625 316.296875 C 443.683594 336.683594 460.125 346.128906 481.273438 344.378906 C 485.0625 344.066406 488.390625 346.882812 488.703125 350.671875 C 489.015625 354.460938 486.199219 357.789062 482.410156 358.101562 C 463.820312 359.640625 437.96875 354.796875 420.355469 322.964844 L 419.941406 322.21875 C 418.359375 319.425781 418.945312 316 421.152344 313.871094 Z M 421.152344 313.871094 " fill-opacity="1" fill-rule="nonzero"/></g></g></g></svg>